<svg width="15" height="16" fill="none" xmlns="http://www.w3.org/2000/svg"><path d="M4.011 7.692a3.7 3.7 0 0 1-1.386-.252 3.482 3.482 0 0 1-1.05-.714 3.381 3.381 0 0 1-.693-1.092 3.935 3.935 0 0 1-.231-1.365c0-.49.077-.945.231-1.365.168-.434.399-.805.693-1.113a2.912 2.912 0 0 1 1.05-.735c.42-.182.882-.273 1.386-.273.504 0 .966.091 1.386.273.42.168.777.413 1.071.735.294.308.525.679.693 1.113.168.42.252.875.252 1.365s-.084.945-.252 1.365c-.168.42-.399.784-.693 1.092a3.415 3.415 0 0 1-1.071.714 3.7 3.7 0 0 1-1.386.252ZM2.688 15 11.634.993h1.155L3.822 15H2.688Zm8.631.252A3.7 3.7 0 0 1 9.933 15a3.482 3.482 0 0 1-1.05-.714 3.381 3.381 0 0 1-.693-1.092 3.935 3.935 0 0 1-.231-1.365c0-.49.077-.945.231-1.365.168-.434.399-.805.693-1.113a2.912 2.912 0 0 1 1.05-.735c.42-.182.882-.273 1.386-.273.504 0 .959.091 1.365.273.42.168.777.413 1.071.735.294.308.525.679.693 1.113.168.42.252.875.252 1.365s-.084.945-.252 1.365c-.168.42-.399.784-.693 1.092a3.415 3.415 0 0 1-1.071.714 3.54 3.54 0 0 1-1.365.252Zm-7.308-8.61a2.022 2.022 0 0 0 1.533-.693c.196-.21.343-.455.441-.735.112-.294.168-.609.168-.945 0-.7-.203-1.274-.609-1.722-.392-.462-.903-.693-1.533-.693-.63 0-1.141.231-1.533.693-.378.448-.567 1.022-.567 1.722 0 .672.189 1.239.567 1.701.392.448.903.672 1.533.672Zm7.308 7.56a2.022 2.022 0 0 0 1.533-.693c.196-.21.343-.455.441-.735.112-.294.168-.609.168-.945 0-.7-.203-1.274-.609-1.722-.392-.462-.903-.693-1.533-.693-.63 0-1.141.231-1.533.693-.392.448-.588 1.022-.588 1.722 0 .336.049.651.147.945.112.28.259.525.441.735.182.21.399.378.651.504.266.126.56.189.882.189Z" fill="#E5E5E5"/></svg>