<svg width="12" height="13" fill="none" xmlns="http://www.w3.org/2000/svg"><mask id="a" fill="#fff"><path fill-rule="evenodd" clip-rule="evenodd" d="M4.833 8.021H6.14c.528 0 1.055 0 1.61-.053a3.972 3.972 0 0 0 3.75-3.855C11.528 1.998 9.917.151 7.862.044A64.29 64.29 0 0 0 3.917.018a42.51 42.51 0 0 1-1.861.026h-.278v6.157H.5v1.793h1.278v.723H.528v1.794h1.25V13h2v-2.49H6.86V8.718H3.778v-.696h1.055Zm-1.055-1.82h.472v.027h.972c1.167.027 1.972 0 2.444-.027 1.112-.107 2-1.07 1.973-2.195 0-1.178-.945-2.141-2.14-2.195a29.88 29.88 0 0 0-2.015-.03c-.232.002-.468.003-.706.003h-1v4.417Z"/></mask><path fill-rule="evenodd" clip-rule="evenodd" d="M4.833 8.021H6.14c.528 0 1.055 0 1.61-.053a3.972 3.972 0 0 0 3.75-3.855C11.528 1.998 9.917.151 7.862.044A64.29 64.29 0 0 0 3.917.018a42.51 42.51 0 0 1-1.861.026h-.278v6.157H.5v1.793h1.278v.723H.528v1.794h1.25V13h2v-2.49H6.86V8.718H3.778v-.696h1.055Zm-1.055-1.82h.472v.027h.972c1.167.027 1.972 0 2.444-.027 1.112-.107 2-1.07 1.973-2.195 0-1.178-.945-2.141-2.14-2.195a29.88 29.88 0 0 0-2.015-.03c-.232.002-.468.003-.706.003h-1v4.417Z" fill="#A8A8A8"/><path d="m7.75 7.968-.013-.25h-.011l.024.25Zm3.75-3.855.25.007v-.004l-.25-.003ZM7.86.044l.014-.25H7.87l-.01.25ZM3.918.018l-.005-.25h-.006l.01.25Zm-2.14.026v-.25h-.25v.25h.25Zm0 6.157v.25h.25V6.2h-.25ZM.5 6.2v-.25H.25v.25H.5Zm0 1.793H.25v.25H.5v-.25Zm1.278 0h.25v-.25h-.25v.25Zm0 .723v.25h.25v-.25h-.25Zm-1.25 0v-.25h-.25v.25h.25Zm0 1.794h-.25v.25h.25v-.25Zm1.25 0h.25v-.25h-.25v.25Zm0 2.489h-.25v.25h.25V13Zm2 0v.25h.25V13h-.25Zm0-2.49v-.25h-.25v.25h.25Zm3.083 0v.25h.25v-.25h-.25Zm0-1.793h.25v-.25h-.25v.25Zm-3.083 0h-.25v.25h.25v-.25Zm0-.696v-.25h-.25v.25h.25Zm.472-1.82h.25v-.25h-.25v.25Zm-.472 0h-.25v.25h.25V6.2Zm.472.027H4v.25h.25v-.25Zm.972 0 .006-.25h-.006v.25ZM7.666 6.2l.015.25.01-.001-.025-.249ZM9.64 4.006h-.25v.006l.25-.006Zm-2.14-2.195-.014.25h.004l.01-.25Zm-2.015-.03v.25h.002l-.002-.25Zm0 0v-.25h-.002l.002.25Zm-1.706.003v-.25h-.25v.25h.25Zm2.36 5.987H4.834v.5H6.14v-.5Zm0 0v.5-.5Zm1.588-.052c-.542.052-1.058.052-1.587.052v.5c.526 0 1.066 0 1.635-.055l-.048-.497Zm3.524-3.613a3.722 3.722 0 0 1-3.513 3.612l.026.5A4.222 4.222 0 0 0 11.75 4.12l-.5-.014ZM7.848.294c1.909.1 3.428 1.823 3.402 3.816l.5.006C11.779 1.88 10.076-.09 7.874-.205l-.026.499ZM3.922.268A64.043 64.043 0 0 1 7.85.294l.02-.5a64.537 64.537 0 0 0-3.96-.026l.01.5ZM2.056.294c.637 0 1.254 0 1.872-.027l-.022-.5a42.28 42.28 0 0 1-1.85.027v.5Zm-.278 0h.278v-.5h-.278v.5Zm.25 5.157V.044h-.5v5.407h.5Zm0 .75v-.75h-.5v.75h.5ZM.5 6.45h1.278v-.5H.5v.5Zm.25 1.543V6.201h-.5v1.793h.5Zm1.028-.25H.5v.5h1.278v-.5Zm.25.973v-.723h-.5v.723h.5Zm-1.5.25h1.25v-.5H.528v.5Zm.25 1.544V8.717h-.5v1.794h.5Zm1-.25H.528v.5h1.25v-.5ZM2.028 13v-2.49h-.5V13h.5Zm1.75-.25h-2v.5h2v-.5Zm-.25-2.24V13h.5v-2.49h-.5Zm3.333-.25H3.778v.5H6.86v-.5Zm-.25-1.543v1.794h.5V8.717h-.5Zm-2.833.25H6.86v-.5H3.778v.5Zm-.25-.946v.696h.5v-.696h-.5Zm1.305-.25H3.778v.5h1.055v-.5Zm-.583-1.82h-.472v.5h.472v-.5Zm.25.277V6.2H4v.027h.5Zm.139-.25h-.39v.5h.39v-.5Zm.472 0h-.472v.5h.472v-.5Zm.111 0h-.111v.5h.111v-.5Zm2.43-.027c-.465.027-1.264.053-2.424.027l-.012.5c1.174.027 1.986 0 2.465-.027l-.029-.5ZM9.39 4.012c.024.988-.761 1.845-1.746 1.94l.047.498C8.927 6.33 9.92 5.26 9.89 4l-.5.012Zm-1.9-1.951c1.065.048 1.9.906 1.9 1.945h.5c0-1.316-1.055-2.385-2.378-2.445l-.022.5Zm-2.003-.03a29.65 29.65 0 0 1 1.999.03l.03-.5c-.674-.04-1.347-.035-2.033-.03l.004.5Zm-.002 0v-.5.5Zm0 0v-.5.5Zm0 0v-.5.5Zm0 0v-.5.5Zm0 0v-.5.5Zm0 0v-.5.5Zm-.706.003c.24 0 .476-.001.708-.003l-.004-.5c-.232.002-.467.003-.704.003v.5Zm-1 0h1v-.5h-1v.5Zm.25 3.417V1.784h-.5v3.667h.5Zm-.5 0v.75h.5v-.75h-.5Z" fill="#fff" mask="url(#a)"/></svg>