<svg width="31" height="31" fill="none" xmlns="http://www.w3.org/2000/svg"><path d="M6.522 8.516a1.409 1.409 0 1 0 1.992-1.993L6.542 4.55a1.41 1.41 0 0 0-2.002-.01c-.55.55-.555 1.437.01 2.002l1.972 1.974ZM29.579 14.091h-2.79c-.787 0-1.424.626-1.424 1.41 0 .778.624 1.408 1.424 1.408h2.79a1.41 1.41 0 1 0 0-2.818ZM5.635 15.5c0-.777-.626-1.409-1.423-1.409h-2.79c-.787 0-1.422.626-1.422 1.41 0 .778.624 1.408 1.421 1.408h2.791c.786 0 1.423-.624 1.423-1.409ZM15.5 7.044a8.453 8.453 0 0 0 0 16.904 8.454 8.454 0 0 0 8.452-8.452A8.454 8.454 0 0 0 15.5 7.044Zm0 14.087a5.635 5.635 0 1 1 0-11.27 5.635 5.635 0 0 1 0 11.27ZM6.522 22.486 4.55 24.458a1.409 1.409 0 1 0 1.992 1.992l1.972-1.973a1.41 1.41 0 0 0 .01-2.001 1.406 1.406 0 0 0-2.002.01ZM24.478 8.516l1.972-1.974a1.413 1.413 0 0 0 .01-2.002 1.409 1.409 0 0 0-2.002.01l-1.972 1.972a1.411 1.411 0 0 0-.01 2.002 1.41 1.41 0 0 0 2.002-.008ZM15.5 25.365c-.779 0-1.409.626-1.409 1.424v2.79A1.41 1.41 0 0 0 15.5 31c.779 0 1.409-.623 1.409-1.421v-2.79c0-.787-.624-1.424-1.409-1.424ZM24.478 22.486a1.408 1.408 0 1 0-1.992 1.992l1.972 1.972a1.413 1.413 0 0 0 2.002.01c.55-.55.555-1.439-.01-2.002l-1.972-1.972ZM15.5 5.635c.779 0 1.409-.624 1.409-1.423v-2.79a1.408 1.408 0 1 0-2.817 0v2.79c0 .786.625 1.423 1.408 1.423Z" fill="#FF7931"/></svg>