<svg width="65" height="65" fill="none" xmlns="http://www.w3.org/2000/svg"><path d="M32.5 64C49.897 64 64 49.897 64 32.5S49.897 1 32.5 1 1 15.103 1 32.5 15.103 64 32.5 64Z" stroke="#fff" stroke-width="2" stroke-miterlimit="10"/><path d="M32.5 56.705c13.368 0 24.205-10.837 24.205-24.205 0-13.368-10.837-24.205-24.205-24.205-13.368 0-24.205 10.837-24.205 24.205 0 13.368 10.837 24.205 24.205 24.205Z" stroke="#fff" stroke-width="2" stroke-miterlimit="10"/><path d="M32.5 42.337c5.433 0 9.837-4.404 9.837-9.837s-4.404-9.837-9.837-9.837-9.837 4.404-9.837 9.837 4.404 9.837 9.837 9.837Z" stroke="#fff" stroke-width="2" stroke-miterlimit="10"/><path d="M32.5 37.805a5.416 5.416 0 1 0 0-10.831 5.416 5.416 0 0 0 0 10.831ZM24.874 9.51c.22.995.442 2.1.442 3.095 0 6.963-5.637 12.6-12.6 12.6-1.105 0-2.1-.11-3.095-.442M40.126 9.51c-.22.995-.442 2.1-.442 3.095 0 6.963 5.637 12.6 12.6 12.6 1.105 0 2.1-.11 3.095-.442M24.874 55.49c.22-.995.442-2.1.442-3.095 0-6.964-5.637-12.6-12.6-12.6-1.105 0-2.1.11-3.095.442M40.126 55.49c-.22-.995-.442-2.1-.442-3.095 0-6.963 5.637-12.6 12.6-12.6 1.105 0 2.1.11 3.095.442" stroke="#fff" stroke-width="2" stroke-miterlimit="10"/></svg>