<svg width="44" height="82" fill="none" xmlns="http://www.w3.org/2000/svg"><path stroke="#fff" stroke-width="2" d="M1 39h42v7H1zM14.344 34l3-10h9.875l2.5 10H14.344ZM14.38 51l2.945 9h9.35l2.945-9H14.38Z"/><mask id="a" fill="#fff"><path d="M17.058 0h9.884v19.768h-9.884V0Z"/></mask><path d="M17.058 0v-2h-2v2h2Zm9.884 0h2v-2h-2v2Zm0 19.768v2h2v-2h-2Zm-9.884 0h-2v2h2v-2Zm0-17.768h9.884v-4h-9.884v4Zm7.884-2v19.768h4V0h-4Zm2 17.768h-9.884v4h9.884v-4Zm-7.884 2V0h-4v19.768h4Z" fill="#fff" mask="url(#a)"/><mask id="b" fill="#fff"><path d="M17.058 63.819h9.884v17.297h-9.884V63.82Z"/></mask><path d="M17.058 63.819v-2h-2v2h2Zm9.884 0h2v-2h-2v2Zm0 17.297v2h2v-2h-2Zm-9.884 0h-2v2h2v-2Zm0-15.297h9.884v-4h-9.884v4Zm7.884-2v17.297h4V63.82h-4Zm2 15.297h-9.884v4h9.884v-4Zm-7.884 2V63.82h-4v17.297h4Z" fill="#fff" mask="url(#b)"/><circle cx="22" cy="6" r="2" fill="#fff"/><circle cx="22" cy="75" r="2" fill="#fff"/></svg>